<?xml version="1.0" ?><svg height="512px" version="1.1" viewBox="0 0 256 512" width="256px" xmlns="http://www.w3.org/2000/svg" xmlns:sketch="http://www.bohemiancoding.com/sketch/ns" xmlns:xlink="http://www.w3.org/1999/xlink"><title/><desc/><defs/><g fill="none" fill-rule="evenodd" id="Page-1" stroke="none" stroke-width="1"><path d="M57.5410405,512 L171.298266,512 L170.37341,256.690958 L246.211561,256.690958 L255.830058,168.248313 L171.298266,168.248313 L171.298266,114.352901 C171.298266,114.352901 171.298266,100.01552 179.806936,94.6612686 C188.315607,89.3070181 198.119075,88.7881242 198.119075,88.7881242 L255.830058,88.7881242 L255.830058,0.345479082 C255.830058,0.345479082 205.864624,0.345470146 176.847399,0.345479082 C147.830174,0.345487883 115.142173,9.00380197 98.6046243,19.0013495 C60.3156069,42.148448 57.5410405,97.0796221 57.5410405,97.0796221 L57.5410405,168.248313 L0.569942197,168.248313 L0.569942197,255.654521 L57.5410405,255.654521 L57.5410405,512 Z" fill="#4A4A4A" id="facebook"/></g></svg>